<svg width="256" height="256" viewBox="0 0 256 256" fill="none" xmlns="http://www.w3.org/2000/svg">
<g filter="url(#filter0_i_3_10)">
<rect width="256" height="256" fill="url(#paint0_linear_3_10)"/>
</g>
<g filter="url(#filter1_d_3_10)">
<path d="M84 77C84 73.6863 81.3137 71 78 71C74.6863 71 72 73.6863 72 77H84ZM73.7574 184.243C76.1005 186.586 79.8995 186.586 82.2426 184.243L120.426 146.059C122.77 143.716 122.77 139.917 120.426 137.574C118.083 135.23 114.284 135.23 111.941 137.574L78 171.515L44.0589 137.574C41.7157 135.23 37.9167 135.23 35.5736 137.574C33.2304 139.917 33.2304 143.716 35.5736 146.059L73.7574 184.243ZM72 77V180H84V77H72Z" fill="url(#paint1_linear_3_10)"/>
</g>
<g filter="url(#filter2_d_3_10)">
<path d="M172 180C172 183.314 174.686 186 178 186C181.314 186 184 183.314 184 180H172ZM182.243 72.7574C179.899 70.4142 176.101 70.4142 173.757 72.7574L135.574 110.941C133.23 113.284 133.23 117.083 135.574 119.426C137.917 121.77 141.716 121.77 144.059 119.426L178 85.4853L211.941 119.426C214.284 121.77 218.083 121.77 220.426 119.426C222.77 117.083 222.77 113.284 220.426 110.941L182.243 72.7574ZM184 180V77H172V180H184Z" fill="url(#paint2_linear_3_10)"/>
</g>
<defs>
<filter id="filter0_i_3_10" x="0" y="0" width="256" height="260" filterUnits="userSpaceOnUse" color-interpolation-filters="sRGB">
<feFlood flood-opacity="0" result="BackgroundImageFix"/>
<feBlend mode="normal" in="SourceGraphic" in2="BackgroundImageFix" result="shape"/>
<feColorMatrix in="SourceAlpha" type="matrix" values="0 0 0 0 0 0 0 0 0 0 0 0 0 0 0 0 0 0 127 0" result="hardAlpha"/>
<feMorphology radius="9" operator="erode" in="SourceAlpha" result="effect1_innerShadow_3_10"/>
<feOffset dy="4"/>
<feGaussianBlur stdDeviation="24.1"/>
<feComposite in2="hardAlpha" operator="arithmetic" k2="-1" k3="1"/>
<feColorMatrix type="matrix" values="0 0 0 0 0 0 0 0 0 0 0 0 0 0 0 0 0 0 0.15 0"/>
<feBlend mode="normal" in2="shape" result="effect1_innerShadow_3_10"/>
</filter>
<filter id="filter1_d_3_10" x="14.1162" y="55.3" width="127.768" height="154.4" filterUnits="userSpaceOnUse" color-interpolation-filters="sRGB">
<feFlood flood-opacity="0" result="BackgroundImageFix"/>
<feColorMatrix in="SourceAlpha" type="matrix" values="0 0 0 0 0 0 0 0 0 0 0 0 0 0 0 0 0 0 127 0" result="hardAlpha"/>
<feOffset dy="4"/>
<feGaussianBlur stdDeviation="9.85"/>
<feComposite in2="hardAlpha" operator="out"/>
<feColorMatrix type="matrix" values="0 0 0 0 0 0 0 0 0 0 0 0 0 0 0 0 0 0 0.25 0"/>
<feBlend mode="normal" in2="BackgroundImageFix" result="effect1_dropShadow_3_10"/>
<feBlend mode="normal" in="SourceGraphic" in2="effect1_dropShadow_3_10" result="shape"/>
</filter>
<filter id="filter2_d_3_10" x="114.116" y="55.3" width="127.768" height="154.4" filterUnits="userSpaceOnUse" color-interpolation-filters="sRGB">
<feFlood flood-opacity="0" result="BackgroundImageFix"/>
<feColorMatrix in="SourceAlpha" type="matrix" values="0 0 0 0 0 0 0 0 0 0 0 0 0 0 0 0 0 0 127 0" result="hardAlpha"/>
<feOffset dy="4"/>
<feGaussianBlur stdDeviation="9.85"/>
<feComposite in2="hardAlpha" operator="out"/>
<feColorMatrix type="matrix" values="0 0 0 0 0 0 0 0 0 0 0 0 0 0 0 0 0 0 0.25 0"/>
<feBlend mode="normal" in2="BackgroundImageFix" result="effect1_dropShadow_3_10"/>
<feBlend mode="normal" in="SourceGraphic" in2="effect1_dropShadow_3_10" result="shape"/>
</filter>
<linearGradient id="paint0_linear_3_10" x1="-6.5" y1="-45" x2="256" y2="313" gradientUnits="userSpaceOnUse">
<stop stop-color="#72EA70"/>
<stop offset="1" stop-color="#51851D"/>
</linearGradient>
<linearGradient id="paint1_linear_3_10" x1="77.5" y1="77" x2="77.5" y2="180" gradientUnits="userSpaceOnUse">
<stop/>
<stop offset="1" stop-color="#4B4B4B"/>
</linearGradient>
<linearGradient id="paint2_linear_3_10" x1="178.5" y1="180" x2="178.5" y2="77" gradientUnits="userSpaceOnUse">
<stop/>
<stop offset="1" stop-color="#4B4B4B"/>
</linearGradient>
</defs>
</svg>
